<?xml version="1.0" encoding="UTF-8"?>
<svg version="1.1" xmlns="http://www.w3.org/2000/svg" width="2048" height="2048">
<path d="M0 0 C1.02118591 -0.00115384 2.04237181 -0.00230769 3.09450275 -0.0034965 C6.50810905 -0.0061383 9.92166797 -0.00166113 13.33527184 0.00279331 C15.81053312 0.00235711 18.28579436 0.00148131 20.76105535 0.00020415 C26.13833741 -0.00156469 31.51560537 -0.00023547 36.89288521 0.00384235 C44.88864403 0.00988899 52.88439589 0.01017708 60.88015659 0.00930037 C74.33170535 0.00798779 87.78324919 0.01132283 101.23479652 0.01731777 C114.55118013 0.02323725 127.86756169 0.02708422 141.18394661 0.02817059 C142.42646858 0.0282737 142.42646858 0.0282737 143.694092 0.02837889 C147.90094927 0.02871723 152.10780654 0.02901861 156.31466381 0.02930576 C186.10240816 0.0314055 215.89014984 0.03814096 245.67789268 0.04760838 C274.61409046 0.05679452 303.5502875 0.0638773 332.48648643 0.06811619 C333.8246817 0.06831348 333.8246817 0.06831348 335.1899112 0.06851475 C344.14914815 0.06983329 353.10838511 0.0711091 362.06762207 0.07235361 C380.31819531 0.07488974 398.56876849 0.07771099 416.81934166 0.08070469 C417.65845114 0.08084198 418.49756061 0.08097927 419.36209765 0.08112072 C475.38484425 0.0903195 531.40758934 0.10618529 587.43033409 0.12304783 C587.43033409 1.11304783 587.43033409 2.10304783 587.43033409 3.12304783 C586.44033409 3.12304783 585.45033409 3.12304783 584.43033409 3.12304783 C584.43033409 3.78304783 584.43033409 4.44304783 584.43033409 5.12304783 C583.11033409 5.45304783 581.79033409 5.78304783 580.43033409 6.12304783 C580.43033409 6.78304783 580.43033409 7.44304783 580.43033409 8.12304783 C573.80533409 11.99804783 573.80533409 11.99804783 570.43033409 13.12304783 C570.43033409 13.78304783 570.43033409 14.44304783 570.43033409 15.12304783 C568.99527792 16.32449021 567.55600407 17.52145182 566.09049034 18.68554783 C564.41357977 20.1375551 563.06984862 21.64756113 561.68033409 23.37304783 C559.43033409 26.12304783 559.43033409 26.12304783 557.43033409 27.12304783 C557.10033409 28.11304783 556.77033409 29.10304783 556.43033409 30.12304783 C555.77033409 30.12304783 555.11033409 30.12304783 554.43033409 30.12304783 C554.3130294 30.70054783 554.19572472 31.27804783 554.07486534 31.87304783 C553.38809472 34.27050164 552.41671719 35.99979621 551.11783409 38.12304783 C547.22177351 44.94397708 544.83785844 52.4098144 543.43033409 60.12304783 C542.77033409 60.12304783 542.11033409 60.12304783 541.43033409 60.12304783 C541.38134972 60.69152439 541.33236534 61.26000095 541.28189659 61.84570408 C540.79979622 66.82463721 539.84596966 71.3098869 538.43033409 76.12304783 C538.43033409 77.44304783 538.43033409 78.76304783 538.43033409 80.12304783 C538.3557294 81.5975479 538.27035757 83.07152759 538.17642784 84.54492283 C536.75827635 104.09494323 536.75827635 104.09494323 540.43033409 123.12304783 C540.66167246 124.57790914 540.87066568 126.03652928 541.05533409 127.49804783 C542.97541322 137.70233935 549.89063563 151.96033429 557.43033409 159.12304783 C557.43033409 159.78304783 557.43033409 160.44304783 557.43033409 161.12304783 C558.09033409 161.12304783 558.75033409 161.12304783 559.43033409 161.12304783 C560.09033409 162.77304783 560.75033409 164.42304783 561.43033409 166.12304783 C562.09033409 166.12304783 562.75033409 166.12304783 563.43033409 166.12304783 C563.55408409 167.05117283 563.55408409 167.05117283 563.68033409 167.99804783 C564.21164735 170.2977422 564.21164735 170.2977422 566.36783409 171.06054783 C569.18163977 172.51008409 569.32508943 174.2494117 570.43033409 177.12304783 C571.42033409 177.45304783 572.41033409 177.78304783 573.43033409 178.12304783 C573.76033409 179.11304783 574.09033409 180.10304783 574.43033409 181.12304783 C576.03661478 182.52854343 577.72283429 183.84242298 579.43033409 185.12304783 C580.97468725 186.30705192 582.51616008 187.49481875 584.05533409 188.68554783 C584.81072472 189.26433689 585.56611534 189.84312595 586.34439659 190.43945408 C588.18605477 191.92588606 589.89502601 193.32201335 591.43033409 195.12304783 C591.20616581 199.27016103 589.29203884 202.47720937 587.43033409 206.12304783 C586.74396784 208.35829818 586.74396784 208.35829818 586.43033409 210.12304783 C585.77033409 210.12304783 585.11033409 210.12304783 584.43033409 210.12304783 C584.24470909 211.91742283 584.24470909 211.91742283 584.05533409 213.74804783 C583.78649338 216.34684133 583.30733812 218.48314446 582.45767784 220.97070408 C581.37149418 224.30359464 580.83977105 227.46542316 580.36783409 230.93554783 C579.53635503 237.01702689 579.53635503 237.01702689 578.43033409 238.12304783 C575.67802526 250.52433853 573.7769184 263.41997962 573.43033409 276.12304783 C573.40987022 276.76677341 573.38940636 277.410499 573.36832237 278.07373142 C573.12565979 286.53884516 573.16019055 294.88756361 575.43033409 303.12304783 C575.76033409 303.45304783 576.09033409 303.78304783 576.43033409 304.12304783 C576.9717123 306.7935437 577.39488987 309.47674759 577.83267784 312.16601658 C578.4619053 315.27925309 579.3932838 318.12067845 580.43033409 321.12304783 C580.90269748 322.64366501 581.36970582 324.16595131 581.83267784 325.68945408 C582.0834005 326.50478611 582.33412315 327.32011814 582.59244347 328.1601572 C583.11013205 329.84623109 583.62314304 331.53374816 584.13150597 333.2226572 C585.48388471 337.59108265 586.95414557 341.24416292 589.43033409 345.12304783 C590.11783409 348.43554783 590.11783409 348.43554783 590.43033409 351.12304783 C591.09033409 351.12304783 591.75033409 351.12304783 592.43033409 351.12304783 C593.68698387 354.02905044 594.43033409 355.91909367 594.43033409 359.12304783 C595.42033409 359.45304783 596.41033409 359.78304783 597.43033409 360.12304783 C598.15782884 361.76407605 598.81806651 363.43563838 599.43033409 365.12304783 C600.26256337 366.50391234 601.13987968 367.85839464 602.05533409 369.18554783 C602.58513878 369.96156345 603.11494347 370.73757908 603.66080284 371.53711033 C604.24474815 372.3904697 604.82869347 373.24382908 605.43033409 374.12304783 C606.74456818 376.10106343 608.05699076 378.08028353 609.36783409 380.06054783 C610.72135871 382.08181125 612.07551242 384.10265357 613.43033409 386.12304783 C614.04263878 387.05117283 614.65494347 387.97929783 615.28580284 388.93554783 C618.62187053 393.88441646 621.74701956 397.45784515 626.43033409 401.12304783 C628.12121631 403.10261725 629.78863881 405.10249979 631.43033409 407.12304783 C635.80367189 411.63818327 640.48624503 415.76280027 645.19986534 419.91601658 C646.30394737 421.00849705 646.30394737 421.00849705 647.43033409 422.12304783 C647.43033409 422.78304783 647.43033409 423.44304783 647.43033409 424.12304783 C648.2927169 424.2854697 648.2927169 424.2854697 649.17252159 424.45117283 C651.73375298 425.21333857 653.38599218 426.3200872 655.55533409 427.87304783 C660.28866946 431.13361496 665.23961066 433.67397999 670.43033409 436.12304783 C670.43033409 436.78304783 670.43033409 437.44304783 670.43033409 438.12304783 C671.27595909 438.22617283 672.12158409 438.32929783 672.99283409 438.43554783 C676.77312089 439.19160519 679.91513312 440.56073628 683.43033409 442.12304783 C684.75309465 442.49613414 686.08265486 442.85351198 687.43033409 443.12304783 C687.43033409 443.78304783 687.43033409 444.44304783 687.43033409 445.12304783 C688.21279503 445.18363377 688.99525597 445.2442197 689.80142784 445.30664158 C691.31929893 445.43232517 691.31929893 445.43232517 692.86783409 445.56054783 C693.87717003 445.64175877 694.88650597 445.7229697 695.92642784 445.80664158 C698.43033409 446.12304783 698.43033409 446.12304783 699.43033409 447.12304783 C701.79431878 447.22382903 704.1284472 447.26277998 706.49283409 447.25586033 C707.19932091 447.25681705 707.90580772 447.25777378 708.63370323 447.2587595 C710.13004203 447.25944115 711.62638376 447.25758787 713.1227169 447.25341892 C715.42063566 447.2480704 717.71835895 447.25336434 720.01627159 447.25976658 C721.46679286 447.25910579 722.917314 447.25782463 724.36783409 447.25586033 C725.40532799 447.25889668 725.40532799 447.25889668 726.46378136 447.26199436 C729.72769047 447.52535516 729.72769047 447.52535516 732.43033409 446.12304783 C734.61326183 445.8882309 736.80236583 445.7094146 738.99283409 445.56054783 C740.78914268 445.43486423 740.78914268 445.43486423 742.62174034 445.30664158 C743.54857628 445.24605564 744.47541222 445.1854697 745.43033409 445.12304783 C745.43033409 444.46304783 745.43033409 443.80304783 745.43033409 443.12304783 C746.33912315 442.8852158 746.33912315 442.8852158 747.26627159 442.64257908 C753.76901531 440.83181506 759.48128179 438.28166518 765.43033409 435.12304783 C773.14646312 431.12304783 773.14646312 431.12304783 775.43033409 431.12304783 C775.43033409 430.46304783 775.43033409 429.80304783 775.43033409 429.12304783 C777.41033409 428.46304783 779.39033409 427.80304783 781.43033409 427.12304783 C781.43033409 426.46304783 781.43033409 425.80304783 781.43033409 425.12304783 C783.18033409 423.43554783 783.18033409 423.43554783 785.43033409 422.12304783 C787.57095909 422.54101658 787.57095909 422.54101658 789.43033409 423.12304783 C789.6842794 424.12464939 789.93822472 425.12625095 790.19986534 426.15820408 C790.54723144 427.5007271 790.89490414 428.84317082 791.24283409 430.18554783 C791.40847862 430.84232517 791.57412315 431.49910252 791.74478722 432.1757822 C792.62529479 435.54829233 793.62406649 438.69219631 795.06705284 441.86914158 C796.43033409 445.12304783 796.43033409 445.12304783 796.43033409 449.12304783 C797.09033409 449.12304783 797.75033409 449.12304783 798.43033409 449.12304783 C799.09033409 451.76304783 799.75033409 454.40304783 800.43033409 457.12304783 C801.09033409 457.12304783 801.75033409 457.12304783 802.43033409 457.12304783 C802.78095909 457.92742283 803.13158409 458.73179783 803.49283409 459.56054783 C804.95379971 462.51726397 806.79816072 464.93538359 808.86783409 467.49804783 C811.10054069 470.28543519 812.93776965 472.87946623 814.43033409 476.12304783 C817.87254473 483.49290906 823.08883254 489.16013357 829.43033409 494.12304783 C831.09700076 495.7897145 832.76366742 497.45638116 834.43033409 499.12304783 C835.19345909 499.67992283 835.95658409 500.23679783 836.74283409 500.81054783 C837.29970909 501.24367283 837.85658409 501.67679783 838.43033409 502.12304783 C838.43033409 502.78304783 838.43033409 503.44304783 838.43033409 504.12304783 C839.20763878 504.46529392 839.20763878 504.46529392 840.00064659 504.81445408 C843.96788666 506.9511509 847.5037331 509.72968774 851.12174034 512.4023447 C854.75817474 515.04881703 858.34853028 517.1930645 862.43033409 519.12304783 C864.14314636 520.05233959 865.85152279 520.9898544 867.55533409 521.93554783 C869.51259459 523.00002284 871.47095964 524.062469 873.43033409 525.12304783 C874.38295128 525.64511814 875.33556847 526.16718845 876.31705284 526.70507908 C887.444491 532.57335421 898.59258928 535.26122648 911.04361534 536.68164158 C913.80077036 537.04099396 916.26783989 537.55625773 918.93033409 538.31054783 C927.33119672 540.33120986 936.70229526 538.73105786 944.95767784 536.59961033 C950.67955872 535.49681496 956.62068665 535.41391292 962.43033409 535.12304783 C962.43033409 534.46304783 962.43033409 533.80304783 962.43033409 533.12304783 C963.13158409 533.01347752 963.83283409 532.9039072 964.55533409 532.79101658 C969.17375351 532.01918833 973.56181463 531.21774485 977.93033409 529.49804783 C981.43033409 528.12304783 981.43033409 528.12304783 984.43033409 528.12304783 C984.43033409 527.46304783 984.43033409 526.80304783 984.43033409 526.12304783 C986.17585882 525.28038072 987.92695489 524.44924745 989.68033409 523.62304783 C990.65486534 523.15898533 991.62939659 522.69492283 992.63345909 522.21679783 C995.43033409 521.12304783 995.43033409 521.12304783 999.43033409 521.12304783 C999.47743549 561.20084658 999.52384943 601.27864611 999.56973839 641.35644627 C999.57063651 642.14078483 999.57153464 642.92512338 999.57245998 643.73322978 C999.66872498 727.81842441 999.7605368 811.90362252 999.84337425 895.98883152 C999.84521658 897.85776541 999.84705891 899.7266993 999.84890125 901.59563319 C999.88756353 940.82982959 999.9256011 980.06402658 999.96291754 1019.29822428 C999.98166503 1039.00848565 1000.0005325 1058.7187469 1000.01951343 1078.42900805 C1000.02237583 1081.40212369 1000.02523481 1084.37523934 1000.02809365 1087.34835498 C1000.07211699 1133.10008053 1000.11870461 1178.85180169 1000.17276573 1224.60351658 C1000.17392699 1225.58632521 1000.17508824 1226.56913384 1000.17628469 1227.58172455 C1000.19502181 1243.42630183 1000.21397524 1259.27087886 1000.2329574 1275.11545585 C1000.2876656 1320.78363302 1000.34075968 1366.45180952 1000.38329601 1412.11999989 C1000.38417255 1413.06024131 1000.38504909 1414.00048273 1000.38595219 1414.96921632 C1000.40517124 1435.61578644 1000.42356871 1456.26235721 1000.44118956 1476.90892876 C1000.44829535 1485.21793462 1000.45551928 1493.52694037 1000.46278381 1501.83594608 C1000.46357601 1502.7452988 1000.4643682 1503.65465152 1000.4651844 1504.59156038 C1000.49071666 1533.83250527 1000.52584363 1563.07342885 1000.56606329 1592.31435693 C1000.60657425 1621.79928102 1000.63755219 1651.28419879 1000.65550435 1680.76914571 C1000.65799445 1684.85505443 1000.66059248 1688.94096307 1000.66325569 1693.02687168 C1000.6637738 1693.8277401 1000.6642919 1694.62860852 1000.6648257 1695.45374568 C1000.67326755 1708.07249113 1000.6918373 1720.69119997 1000.71476127 1733.30992657 C1000.73715887 1745.75583071 1000.74853533 1758.20170621 1000.74864908 1770.64763088 C1000.74900239 1777.29002098 1000.75425292 1783.93233234 1000.77302881 1790.57470366 C1000.84801478 1818.2657908 1000.38604856 1845.57574094 997.43033409 1873.12304783 C997.17629881 1875.77937215 996.9248032 1878.43585937 996.67954801 1881.09300779 C996.28103133 1884.33923429 995.44333976 1887.41810917 994.55533409 1890.56054783 C994.20213097 1891.82898533 993.84892784 1893.09742283 993.48502159 1894.40429783 C993.13697472 1895.63148533 992.78892784 1896.85867283 992.43033409 1898.12304783 C991.84482142 1900.26828753 991.26121632 1902.41404968 990.68033409 1904.56054783 C990.2641188 1906.08150476 989.84764526 1907.60239122 989.43033409 1909.12304783 C988.77033409 1909.12304783 988.11033409 1909.12304783 987.43033409 1909.12304783 C987.28595909 1909.70054783 987.14158409 1910.27804783 986.99283409 1910.87304783 C986.47200076 1912.95638116 985.95116742 1915.0397145 985.43033409 1917.12304783 C984.77033409 1917.12304783 984.11033409 1917.12304783 983.43033409 1917.12304783 C983.36845909 1918.29867283 983.30658409 1919.47429783 983.24283409 1920.68554783 C982.73326224 1924.78365384 981.37219005 1927.00040958 978.84049034 1930.18164158 C976.17333069 1933.85360376 974.36496147 1938.03151674 972.43033409 1942.12304783 C971.77033409 1942.12304783 971.11033409 1942.12304783 970.43033409 1942.12304783 C970.10033409 1943.77304783 969.77033409 1945.42304783 969.43033409 1947.12304783 C968.77033409 1947.12304783 968.11033409 1947.12304783 967.43033409 1947.12304783 C967.02814659 1948.20586033 967.02814659 1948.20586033 966.61783409 1949.31054783 C965.43132047 1952.12071166 964.1554777 1954.60721339 962.43033409 1957.12304783 C961.77033409 1957.12304783 961.11033409 1957.12304783 960.43033409 1957.12304783 C960.18283409 1957.67992283 959.93533409 1958.23679783 959.68033409 1958.81054783 C958.20672456 1961.53672547 956.38736401 1963.71869678 954.43033409 1966.12304783 C953.55084559 1967.390779 952.67595897 1968.66171319 951.80533409 1969.93554783 C951.02158409 1970.98742283 950.23783409 1972.03929783 949.43033409 1973.12304783 C948.77033409 1973.12304783 948.11033409 1973.12304783 947.43033409 1973.12304783 C947.34783409 1973.70054783 947.26533409 1974.27804783 947.18033409 1974.87304783 C946.21235622 1977.77698143 944.74339126 1979.16045387 942.43033409 1981.12304783 C941.77033409 1981.12304783 941.11033409 1981.12304783 940.43033409 1981.12304783 C940.02814659 1982.02023533 940.02814659 1982.02023533 939.61783409 1982.93554783 C938.43116003 1985.12152637 937.33434296 1986.53637377 935.43033409 1988.12304783 C934.77033409 1988.12304783 934.11033409 1988.12304783 933.43033409 1988.12304783 C933.10033409 1989.11304783 932.77033409 1990.10304783 932.43033409 1991.12304783 C927.97319123 1995.12304783 927.97319123 1995.12304783 925.43033409 1995.12304783 C925.10033409 1996.11304783 924.77033409 1997.10304783 924.43033409 1998.12304783 C923.11033409 1998.12304783 921.79033409 1998.12304783 920.43033409 1998.12304783 C920.43033409 1998.78304783 920.43033409 1999.44304783 920.43033409 2000.12304783 C918.78033409 2000.78304783 917.13033409 2001.44304783 915.43033409 2002.12304783 C915.43033409 2002.78304783 915.43033409 2003.44304783 915.43033409 2004.12304783 C913.78033409 2004.45304783 912.13033409 2004.78304783 910.43033409 2005.12304783 C910.43033409 2005.78304783 910.43033409 2006.44304783 910.43033409 2007.12304783 C909.01990453 2007.96689458 907.60169277 2008.79774279 906.18033409 2009.62304783 C905.39142784 2010.08711033 904.60252159 2010.55117283 903.78970909 2011.02929783 C901.43033409 2012.12304783 901.43033409 2012.12304783 897.43033409 2012.12304783 C897.43033409 2012.78304783 897.43033409 2013.44304783 897.43033409 2014.12304783 C896.50414268 2014.3782822 896.50414268 2014.3782822 895.55924034 2014.63867283 C894.71232628 2014.88101658 893.86541222 2015.12336033 892.99283409 2015.37304783 C892.16912315 2015.60507908 891.34541222 2015.83711033 890.49674034 2016.07617283 C887.95298946 2016.94461262 885.65759104 2017.92821739 883.23111534 2019.06445408 C878.29632647 2021.29525609 873.32220308 2022.60613882 868.05533409 2023.81054783 C867.18650597 2024.02259861 866.31767784 2024.23464939 865.42252159 2024.45312595 C854.32098066 2027.05607601 843.31144454 2027.2697103 831.94882011 2027.25447559 C830.50236771 2027.25612835 829.05591575 2027.25821604 827.60946453 2027.2606957 C823.64448365 2027.2662319 819.6795245 2027.26559555 815.71454101 2027.26391811 C811.39703516 2027.26318435 807.0795353 2027.26821616 802.76203203 2027.27249312 C794.20321952 2027.28005889 785.64441325 2027.28226546 777.08559775 2027.28282218 C766.8319469 2027.28373722 756.5783018 2027.29040887 746.32465342 2027.297169 C721.54509594 2027.31321631 696.76553909 2027.31913067 671.98597735 2027.32391775 C660.26122874 2027.32625479 648.53648063 2027.32985754 636.81173241 2027.33361313 C596.66766042 2027.34644698 556.52358869 2027.35716673 516.37951469 2027.36061573 C513.86032491 2027.36083736 511.34113512 2027.36105915 508.82194534 2027.36128108 C506.29671981 2027.36150172 503.77149428 2027.3617222 501.24626875 2027.36194253 C496.18034522 2027.36238508 491.11442169 2027.3628322 486.04849815 2027.3632822 C484.16442156 2027.36344629 484.16442156 2027.36344629 482.24228282 2027.36361369 C441.5130668 2027.36724448 400.78386859 2027.38316619 360.05465939 2027.40647257 C316.98125727 2027.43107525 273.90786532 2027.44478875 230.83445597 2027.44598365 C226.10506789 2027.4461551 221.37567981 2027.44637053 216.64629173 2027.44661808 C214.89956204 2027.44670173 214.89956204 2027.44670173 213.11754487 2027.44678708 C194.38854556 2027.44793707 175.65956454 2027.45895463 156.9305714 2027.47350514 C138.10201156 2027.48787996 119.27347513 2027.49110152 100.4449113 2027.48306516 C89.26435604 2027.47861373 78.08387642 2027.4824501 66.90333111 2027.49830366 C59.42682704 2027.50807309 51.9503758 2027.5068567 44.47387217 2027.49686744 C40.21936914 2027.49148962 35.96501107 2027.49071917 31.71052021 2027.50337616 C-14.16668288 2027.63134877 -14.16668288 2027.63134877 -34.35091591 2018.07226658 C-36.5984678 2017.11072589 -38.76226831 2016.5240724 -41.13216591 2015.93554783 C-51.10446829 2013.09523635 -61.01673776 2006.85453797 -68.99154091 2000.31445408 C-70.75514195 1998.9830226 -72.57148458 1998.05698041 -74.56966591 1997.12304783 C-74.56966591 1996.46304783 -74.56966591 1995.80304783 -74.56966591 1995.12304783 C-76.21966591 1994.46304783 -77.86966591 1993.80304783 -79.56966591 1993.12304783 C-79.56966591 1992.46304783 -79.56966591 1991.80304783 -79.56966591 1991.12304783 C-80.55966591 1990.79304783 -81.54966591 1990.46304783 -82.56966591 1990.12304783 C-82.56966591 1989.46304783 -82.56966591 1988.80304783 -82.56966591 1988.12304783 C-83.14716591 1987.89617283 -83.72466591 1987.66929783 -84.31966591 1987.43554783 C-87.16557972 1985.77543144 -88.56808512 1983.73116825 -90.56966591 1981.12304783 C-91.69115028 1980.02476658 -91.69115028 1980.02476658 -92.83529091 1978.90429783 C-95.93770141 1975.74870315 -98.65796881 1972.41626429 -101.38216591 1968.93554783 C-101.88425575 1968.30712986 -102.3863456 1967.67871189 -102.90365028 1967.03125095 C-106.56966591 1962.36768006 -106.56966591 1962.36768006 -106.56966591 1960.12304783 C-107.47313759 1959.74696384 -107.47313759 1959.74696384 -108.39486122 1959.3632822 C-110.8905333 1957.94006553 -111.83017532 1956.68570782 -113.36654091 1954.27929783 C-114.09163857 1953.15201267 -114.09163857 1953.15201267 -114.83138466 1952.00195408 C-115.32251747 1951.21691502 -115.81365028 1950.43187595 -116.31966591 1949.62304783 C-116.82626747 1948.83800877 -117.33286903 1948.0529697 -117.85482216 1947.24414158 C-121.56966591 1941.40652997 -121.56966591 1941.40652997 -121.56966591 1939.12304783 C-122.22966591 1939.12304783 -122.88966591 1939.12304783 -123.56966591 1939.12304783 C-127.77275601 1932.04567962 -130.84806023 1925.01939518 -133.39388466 1917.18945408 C-134.4947023 1914.31855092 -135.67604837 1912.49895401 -137.56966591 1910.12304783 C-139.92314924 1905.24510162 -140.86214943 1900.47995834 -141.56966591 1895.12304783 C-142.03372841 1893.98222752 -142.03372841 1893.98222752 -142.50716591 1892.81836033 C-151.63216963 1869.67037295 -150.01622251 1839.01709344 -149.94718933 1814.6061945 C-149.94866105 1811.7509969 -149.95465646 1808.8958124 -149.96040243 1806.04062063 C-149.97046763 1799.87167469 -149.9696699 1793.70280866 -149.9613518 1787.53386122 C-149.94895613 1778.29873887 -149.95415047 1769.06368003 -149.96249972 1759.82855606 C-149.97623349 1744.08063606 -149.9758822 1728.33274523 -149.96765709 1712.58482265 C-149.95938149 1696.64275046 -149.95767977 1680.70069744 -149.96386909 1664.75862408 C-149.96445037 1663.24401677 -149.96445037 1663.24401677 -149.96504339 1661.69881133 C-149.96664334 1657.58579742 -149.96828948 1653.47278352 -149.96999422 1649.35976965 C-149.98583405 1611.11586543 -149.9869508 1572.87197405 -149.97855186 1534.62806797 C-149.97830348 1533.49650705 -149.97805509 1532.36494613 -149.97779918 1531.19909548 C-149.97755039 1530.06570865 -149.9773016 1528.93232181 -149.97704527 1527.76458992 C-149.96946842 1493.20137069 -149.96752494 1458.63815676 -149.9711132 1424.07493687 C-149.97134564 1421.75823649 -149.97157711 1419.44153611 -149.97180761 1417.12483573 C-149.97273906 1407.8144068 -149.97369506 1398.50397787 -149.97468691 1389.19354895 C-149.9774376 1363.16887624 -149.97914964 1337.14420351 -149.98004532 1311.11953068 C-149.98008626 1309.93454043 -149.98012719 1308.74955018 -149.98016937 1307.52865114 C-149.98139676 1269.78351728 -149.97801884 1232.03838527 -149.97149658 1194.29325199 C-149.97128584 1193.06946212 -149.97107509 1191.84567225 -149.97085795 1190.58479784 C-149.96742333 1170.71266409 -149.96376484 1150.84053037 -149.96008743 1130.96839666 C-149.94551902 1052.15877657 -149.94619521 973.34917176 -149.96077919 894.53955173 C-149.96444292 874.67731573 -149.96807614 854.81507972 -149.97149658 834.95284367 C-149.97170793 833.72976618 -149.97191927 832.50668869 -149.97213702 831.24654825 C-149.97860793 793.53988691 -149.98134795 755.83322685 -149.98004532 718.12656498 C-149.98000457 716.94245068 -149.97996381 715.75833639 -149.97992182 714.53833984 C-149.97898429 688.54232551 -149.97708318 662.54631131 -149.97431381 636.55029711 C-149.97332643 627.2483136 -149.97238718 617.94633008 -149.97146168 608.64434656 C-149.97122951 606.33036693 -149.97099332 604.0163873 -149.97075309 601.70240766 C-149.96717586 567.15060292 -149.97021474 532.59880417 -149.97779918 498.04700018 C-149.97804757 496.91543925 -149.97829595 495.78387833 -149.97855186 494.61802769 C-149.97879991 493.48856464 -149.97904796 492.35910159 -149.97930352 491.19541239 C-149.9875872 453.05927227 -149.98451606 414.92314753 -149.96870963 376.7870096 C-149.96705266 372.68716361 -149.96544254 368.5873176 -149.96386909 364.48747158 C-149.96347847 363.48133562 -149.96308785 362.47519966 -149.9626854 361.43857473 C-149.95678121 345.5433525 -149.96087407 329.64814948 -149.96917611 313.75292899 C-149.97713562 298.10215493 -149.97428333 282.4514131 -149.96013385 266.80064311 C-149.95216667 257.64010202 -149.95222673 248.47964959 -149.96457864 239.31911286 C-149.97197579 233.21505046 -149.96826228 227.11105625 -149.95597808 221.00700198 C-149.94933744 217.55987154 -149.94867923 214.11305668 -149.95842763 210.66591362 C-150.01469509 189.23062879 -149.67149991 167.0567857 -144.56966591 146.12304783 C-144.03017718 143.18935751 -143.52885288 140.25209426 -143.03450966 137.31054783 C-142.56966591 135.12304783 -142.56966591 135.12304783 -141.56966591 134.12304783 C-141.17397483 132.10993334 -140.827144 130.08707575 -140.50716591 128.06054783 C-140.33056435 126.95582127 -140.15396278 125.8510947 -139.97200966 124.71289158 C-139.83923622 123.85824314 -139.70646278 123.0035947 -139.56966591 122.12304783 C-138.90966591 122.12304783 -138.24966591 122.12304783 -137.56966591 122.12304783 C-137.50779091 121.21554783 -137.44591591 120.30804783 -137.38216591 119.37304783 C-136.63159115 114.26102514 -134.47387306 109.77025343 -132.40999794 105.07031345 C-131.4354037 102.81192773 -130.4995184 100.53924157 -129.56575966 98.26367283 C-129.21585976 97.41579197 -128.86595985 96.56791111 -128.50545692 95.69433689 C-127.80851285 94.00498936 -127.1148856 92.31426892 -126.42489052 90.62207127 C-124.80630128 86.73297768 -123.26943066 83.39755241 -120.56966591 80.12304783 C-119.81778828 78.78135807 -119.089315 77.42634121 -118.38216591 76.06054783 C-111.72815406 63.90801122 -102.22505958 51.07758054 -91.56966591 42.12304783 C-90.90966591 42.12304783 -90.24966591 42.12304783 -89.56966591 42.12304783 C-89.23966591 41.13304783 -88.90966591 40.14304783 -88.56966591 39.12304783 C-86.09947312 36.57545997 -83.30203176 34.38370231 -80.56966591 32.12304783 C-79.69568153 31.38570408 -78.82169716 30.64836033 -77.92122841 29.88867283 C-77.04208778 29.16164158 -76.16294716 28.43461033 -75.25716591 27.68554783 C-74.4360331 27.00621189 -73.61490028 26.32687595 -72.76888466 25.62695408 C-70.56966591 24.12304783 -70.56966591 24.12304783 -67.56966591 24.12304783 C-67.07466591 22.63804783 -67.07466591 22.63804783 -66.56966591 21.12304783 C-65.57966591 21.12304783 -64.58966591 21.12304783 -63.56966591 21.12304783 C-63.56966591 20.46304783 -63.56966591 19.80304783 -63.56966591 19.12304783 C-55.56497943 13.18831301 -46.94048225 9.39222743 -37.56966591 6.12304783 C-36.15176369 5.5636696 -34.73490035 5.00164161 -33.31966591 4.43554783 C-22.4603493 0.63478701 -11.42760562 -0.03217186 0 0 Z " fill="#00572E" transform="translate(594.5696659088135,14.876952171325684)"/>
<path d="M0 0 C1.02118591 -0.00115384 2.04237181 -0.00230769 3.09450275 -0.0034965 C6.50810905 -0.0061383 9.92166797 -0.00166113 13.33527184 0.00279331 C15.81053312 0.00235711 18.28579436 0.00148131 20.76105535 0.00020415 C26.13833741 -0.00156469 31.51560537 -0.00023547 36.89288521 0.00384235 C44.88864403 0.00988899 52.88439589 0.01017708 60.88015659 0.00930037 C74.33170535 0.00798779 87.78324919 0.01132283 101.23479652 0.01731777 C114.55118013 0.02323725 127.86756169 0.02708422 141.18394661 0.02817059 C142.42646858 0.0282737 142.42646858 0.0282737 143.694092 0.02837889 C147.90094927 0.02871723 152.10780654 0.02901861 156.31466381 0.02930576 C186.10240816 0.0314055 215.89014984 0.03814096 245.67789268 0.04760838 C274.61409046 0.05679452 303.5502875 0.0638773 332.48648643 0.06811619 C333.8246817 0.06831348 333.8246817 0.06831348 335.1899112 0.06851475 C344.14914815 0.06983329 353.10838511 0.0711091 362.06762207 0.07235361 C380.31819531 0.07488974 398.56876849 0.07771099 416.81934166 0.08070469 C417.65845114 0.08084198 418.49756061 0.08097927 419.36209765 0.08112072 C475.38484425 0.0903195 531.40758934 0.10618529 587.43033409 0.12304783 C587.43033409 1.11304783 587.43033409 2.10304783 587.43033409 3.12304783 C586.44033409 3.12304783 585.45033409 3.12304783 584.43033409 3.12304783 C584.43033409 3.78304783 584.43033409 4.44304783 584.43033409 5.12304783 C583.11033409 5.45304783 581.79033409 5.78304783 580.43033409 6.12304783 C580.43033409 6.78304783 580.43033409 7.44304783 580.43033409 8.12304783 C573.80533409 11.99804783 573.80533409 11.99804783 570.43033409 13.12304783 C570.43033409 13.78304783 570.43033409 14.44304783 570.43033409 15.12304783 C568.99527792 16.32449021 567.55600407 17.52145182 566.09049034 18.68554783 C564.41357977 20.1375551 563.06984862 21.64756113 561.68033409 23.37304783 C559.43033409 26.12304783 559.43033409 26.12304783 557.43033409 27.12304783 C557.10033409 28.11304783 556.77033409 29.10304783 556.43033409 30.12304783 C555.77033409 30.12304783 555.11033409 30.12304783 554.43033409 30.12304783 C554.3130294 30.70054783 554.19572472 31.27804783 554.07486534 31.87304783 C553.38809472 34.27050164 552.41671719 35.99979621 551.11783409 38.12304783 C547.22177351 44.94397708 544.83785844 52.4098144 543.43033409 60.12304783 C542.77033409 60.12304783 542.11033409 60.12304783 541.43033409 60.12304783 C541.38134972 60.69152439 541.33236534 61.26000095 541.28189659 61.84570408 C540.79979622 66.82463721 539.84596966 71.3098869 538.43033409 76.12304783 C538.43033409 77.44304783 538.43033409 78.76304783 538.43033409 80.12304783 C538.3557294 81.5975479 538.27035757 83.07152759 538.17642784 84.54492283 C536.75827635 104.09494323 536.75827635 104.09494323 540.43033409 123.12304783 C540.66167246 124.57790914 540.87066568 126.03652928 541.05533409 127.49804783 C542.97541322 137.70233935 549.89063563 151.96033429 557.43033409 159.12304783 C557.43033409 159.78304783 557.43033409 160.44304783 557.43033409 161.12304783 C558.09033409 161.12304783 558.75033409 161.12304783 559.43033409 161.12304783 C560.09033409 162.77304783 560.75033409 164.42304783 561.43033409 166.12304783 C562.09033409 166.12304783 562.75033409 166.12304783 563.43033409 166.12304783 C563.55408409 167.05117283 563.55408409 167.05117283 563.68033409 167.99804783 C564.21164735 170.2977422 564.21164735 170.2977422 566.36783409 171.06054783 C569.18163977 172.51008409 569.32508943 174.2494117 570.43033409 177.12304783 C571.42033409 177.45304783 572.41033409 177.78304783 573.43033409 178.12304783 C573.76033409 179.11304783 574.09033409 180.10304783 574.43033409 181.12304783 C576.03661478 182.52854343 577.72283429 183.84242298 579.43033409 185.12304783 C580.97468725 186.30705192 582.51616008 187.49481875 584.05533409 188.68554783 C584.81072472 189.26433689 585.56611534 189.84312595 586.34439659 190.43945408 C588.18605477 191.92588606 589.89502601 193.32201335 591.43033409 195.12304783 C591.20616581 199.27016103 589.29203884 202.47720937 587.43033409 206.12304783 C586.74396784 208.35829818 586.74396784 208.35829818 586.43033409 210.12304783 C585.77033409 210.12304783 585.11033409 210.12304783 584.43033409 210.12304783 C584.24470909 211.91742283 584.24470909 211.91742283 584.05533409 213.74804783 C583.78649338 216.34684133 583.30733812 218.48314446 582.45767784 220.97070408 C581.37149418 224.30359464 580.83977105 227.46542316 580.36783409 230.93554783 C579.53635503 237.01702689 579.53635503 237.01702689 578.43033409 238.12304783 C575.67802526 250.52433853 573.7769184 263.41997962 573.43033409 276.12304783 C573.40987022 276.76677341 573.38940636 277.410499 573.36832237 278.07373142 C573.12565979 286.53884516 573.16019055 294.88756361 575.43033409 303.12304783 C575.76033409 303.45304783 576.09033409 303.78304783 576.43033409 304.12304783 C576.9717123 306.7935437 577.39488987 309.47674759 577.83267784 312.16601658 C578.4619053 315.27925309 579.3932838 318.12067845 580.43033409 321.12304783 C580.90269748 322.64366501 581.36970582 324.16595131 581.83267784 325.68945408 C582.0834005 326.50478611 582.33412315 327.32011814 582.59244347 328.1601572 C583.11013205 329.84623109 583.62314304 331.53374816 584.13150597 333.2226572 C585.48388471 337.59108265 586.95414557 341.24416292 589.43033409 345.12304783 C590.11783409 348.43554783 590.11783409 348.43554783 590.43033409 351.12304783 C591.09033409 351.12304783 591.75033409 351.12304783 592.43033409 351.12304783 C593.68698387 354.02905044 594.43033409 355.91909367 594.43033409 359.12304783 C595.42033409 359.45304783 596.41033409 359.78304783 597.43033409 360.12304783 C598.15782884 361.76407605 598.81806651 363.43563838 599.43033409 365.12304783 C600.26256337 366.50391234 601.13987968 367.85839464 602.05533409 369.18554783 C602.58513878 369.96156345 603.11494347 370.73757908 603.66080284 371.53711033 C604.24474815 372.3904697 604.82869347 373.24382908 605.43033409 374.12304783 C606.74456818 376.10106343 608.05699076 378.08028353 609.36783409 380.06054783 C610.72135871 382.08181125 612.07551242 384.10265357 613.43033409 386.12304783 C614.04263878 387.05117283 614.65494347 387.97929783 615.28580284 388.93554783 C618.62187053 393.88441646 621.74701956 397.45784515 626.43033409 401.12304783 C628.12121631 403.10261725 629.78863881 405.10249979 631.43033409 407.12304783 C635.80367189 411.63818327 640.48624503 415.76280027 645.19986534 419.91601658 C646.30394737 421.00849705 646.30394737 421.00849705 647.43033409 422.12304783 C647.43033409 422.78304783 647.43033409 423.44304783 647.43033409 424.12304783 C648.2927169 424.2854697 648.2927169 424.2854697 649.17252159 424.45117283 C651.73375298 425.21333857 653.38599218 426.3200872 655.55533409 427.87304783 C660.28866946 431.13361496 665.23961066 433.67397999 670.43033409 436.12304783 C670.43033409 436.78304783 670.43033409 437.44304783 670.43033409 438.12304783 C671.27595909 438.22617283 672.12158409 438.32929783 672.99283409 438.43554783 C676.77312089 439.19160519 679.91513312 440.56073628 683.43033409 442.12304783 C684.75309465 442.49613414 686.08265486 442.85351198 687.43033409 443.12304783 C687.43033409 443.78304783 687.43033409 444.44304783 687.43033409 445.12304783 C688.21279503 445.18363377 688.99525597 445.2442197 689.80142784 445.30664158 C691.31929893 445.43232517 691.31929893 445.43232517 692.86783409 445.56054783 C693.87717003 445.64175877 694.88650597 445.7229697 695.92642784 445.80664158 C698.43033409 446.12304783 698.43033409 446.12304783 699.43033409 447.12304783 C701.79431878 447.22382903 704.1284472 447.26277998 706.49283409 447.25586033 C707.19932091 447.25681705 707.90580772 447.25777378 708.63370323 447.2587595 C710.13004203 447.25944115 711.62638376 447.25758787 713.1227169 447.25341892 C715.42063566 447.2480704 717.71835895 447.25336434 720.01627159 447.25976658 C721.46679286 447.25910579 722.917314 447.25782463 724.36783409 447.25586033 C725.40532799 447.25889668 725.40532799 447.25889668 726.46378136 447.26199436 C729.72769047 447.52535516 729.72769047 447.52535516 732.43033409 446.12304783 C734.61326183 445.8882309 736.80236583 445.7094146 738.99283409 445.56054783 C740.78914268 445.43486423 740.78914268 445.43486423 742.62174034 445.30664158 C743.54857628 445.24605564 744.47541222 445.1854697 745.43033409 445.12304783 C745.43033409 444.46304783 745.43033409 443.80304783 745.43033409 443.12304783 C746.33912315 442.8852158 746.33912315 442.8852158 747.26627159 442.64257908 C753.76901531 440.83181506 759.48128179 438.28166518 765.43033409 435.12304783 C773.14646312 431.12304783 773.14646312 431.12304783 775.43033409 431.12304783 C775.43033409 430.46304783 775.43033409 429.80304783 775.43033409 429.12304783 C777.41033409 428.46304783 779.39033409 427.80304783 781.43033409 427.12304783 C781.43033409 426.46304783 781.43033409 425.80304783 781.43033409 425.12304783 C783.18033409 423.43554783 783.18033409 423.43554783 785.43033409 422.12304783 C787.57095909 422.54101658 787.57095909 422.54101658 789.43033409 423.12304783 C789.6842794 424.12464939 789.93822472 425.12625095 790.19986534 426.15820408 C790.54723144 427.5007271 790.89490414 428.84317082 791.24283409 430.18554783 C791.40847862 430.84232517 791.57412315 431.49910252 791.74478722 432.1757822 C792.62529479 435.54829233 793.62406649 438.69219631 795.06705284 441.86914158 C796.43033409 445.12304783 796.43033409 445.12304783 796.43033409 449.12304783 C797.09033409 449.12304783 797.75033409 449.12304783 798.43033409 449.12304783 C799.09033409 451.76304783 799.75033409 454.40304783 800.43033409 457.12304783 C801.09033409 457.12304783 801.75033409 457.12304783 802.43033409 457.12304783 C802.78095909 457.92742283 803.13158409 458.73179783 803.49283409 459.56054783 C804.95379971 462.51726397 806.79816072 464.93538359 808.86783409 467.49804783 C811.10054069 470.28543519 812.93776965 472.87946623 814.43033409 476.12304783 C817.87254473 483.49290906 823.08883254 489.16013357 829.43033409 494.12304783 C831.09700076 495.7897145 832.76366742 497.45638116 834.43033409 499.12304783 C835.19345909 499.67992283 835.95658409 500.23679783 836.74283409 500.81054783 C837.29970909 501.24367283 837.85658409 501.67679783 838.43033409 502.12304783 C838.43033409 502.78304783 838.43033409 503.44304783 838.43033409 504.12304783 C839.20763878 504.46529392 839.20763878 504.46529392 840.00064659 504.81445408 C843.96788666 506.9511509 847.5037331 509.72968774 851.12174034 512.4023447 C854.75817474 515.04881703 858.34853028 517.1930645 862.43033409 519.12304783 C864.14314636 520.05233959 865.85152279 520.9898544 867.55533409 521.93554783 C869.51259459 523.00002284 871.47095964 524.062469 873.43033409 525.12304783 C874.38295128 525.64511814 875.33556847 526.16718845 876.31705284 526.70507908 C887.444491 532.57335421 898.59258928 535.26122648 911.04361534 536.68164158 C913.80077036 537.04099396 916.26783989 537.55625773 918.93033409 538.31054783 C927.33119672 540.33120986 936.70229526 538.73105786 944.95767784 536.59961033 C950.67955872 535.49681496 956.62068665 535.41391292 962.43033409 535.12304783 C962.43033409 534.46304783 962.43033409 533.80304783 962.43033409 533.12304783 C963.13158409 533.01347752 963.83283409 532.9039072 964.55533409 532.79101658 C969.17375351 532.01918833 973.56181463 531.21774485 977.93033409 529.49804783 C981.43033409 528.12304783 981.43033409 528.12304783 984.43033409 528.12304783 C984.43033409 527.46304783 984.43033409 526.80304783 984.43033409 526.12304783 C986.17585882 525.28038072 987.92695489 524.44924745 989.68033409 523.62304783 C990.65486534 523.15898533 991.62939659 522.69492283 992.63345909 522.21679783 C995.43033409 521.12304783 995.43033409 521.12304783 999.43033409 521.12304783 C999.43033409 594.38304783 999.43033409 667.64304783 999.43033409 743.12304783 C620.26033409 743.12304783 241.09033409 743.12304783 -149.56966591 743.12304783 C-149.56966591 168.62304783 -149.56966591 168.62304783 -144.56966591 146.12304783 C-144.03017718 143.18935751 -143.52885288 140.25209426 -143.03450966 137.31054783 C-142.56966591 135.12304783 -142.56966591 135.12304783 -141.56966591 134.12304783 C-141.17397483 132.10993334 -140.827144 130.08707575 -140.50716591 128.06054783 C-140.33056435 126.95582127 -140.15396278 125.8510947 -139.97200966 124.71289158 C-139.83923622 123.85824314 -139.70646278 123.0035947 -139.56966591 122.12304783 C-138.90966591 122.12304783 -138.24966591 122.12304783 -137.56966591 122.12304783 C-137.50779091 121.21554783 -137.44591591 120.30804783 -137.38216591 119.37304783 C-136.63159115 114.26102514 -134.47387306 109.77025343 -132.40999794 105.07031345 C-131.4354037 102.81192773 -130.4995184 100.53924157 -129.56575966 98.26367283 C-129.21585976 97.41579197 -128.86595985 96.56791111 -128.50545692 95.69433689 C-127.80851285 94.00498936 -127.1148856 92.31426892 -126.42489052 90.62207127 C-124.80630128 86.73297768 -123.26943066 83.39755241 -120.56966591 80.12304783 C-119.81778828 78.78135807 -119.089315 77.42634121 -118.38216591 76.06054783 C-111.72815406 63.90801122 -102.22505958 51.07758054 -91.56966591 42.12304783 C-90.90966591 42.12304783 -90.24966591 42.12304783 -89.56966591 42.12304783 C-89.23966591 41.13304783 -88.90966591 40.14304783 -88.56966591 39.12304783 C-86.09947312 36.57545997 -83.30203176 34.38370231 -80.56966591 32.12304783 C-79.69568153 31.38570408 -78.82169716 30.64836033 -77.92122841 29.88867283 C-77.04208778 29.16164158 -76.16294716 28.43461033 -75.25716591 27.68554783 C-74.4360331 27.00621189 -73.61490028 26.32687595 -72.76888466 25.62695408 C-70.56966591 24.12304783 -70.56966591 24.12304783 -67.56966591 24.12304783 C-67.07466591 22.63804783 -67.07466591 22.63804783 -66.56966591 21.12304783 C-65.57966591 21.12304783 -64.58966591 21.12304783 -63.56966591 21.12304783 C-63.56966591 20.46304783 -63.56966591 19.80304783 -63.56966591 19.12304783 C-55.56497943 13.18831301 -46.94048225 9.39222743 -37.56966591 6.12304783 C-36.15176369 5.5636696 -34.73490035 5.00164161 -33.31966591 4.43554783 C-22.4603493 0.63478701 -11.42760562 -0.03217186 0 0 Z " fill="#A4C3B4" transform="translate(594.5696659088135,14.876952171325684)"/>
<path d="M0 0 C3.625 0.625 3.625 0.625 6.12109375 3.625 C8.78512833 7.60891503 10.58520652 11.79602229 12.3125 16.25 C12.60705078 16.98734375 12.90160156 17.7246875 13.20507812 18.484375 C13.77236717 19.90705944 14.33376474 21.33211131 14.88842773 22.75976562 C15.47810907 24.25302563 16.11440771 25.7278434 16.765625 27.1953125 C17.89598054 30.39113589 18.26924335 33.51488777 18.6875 36.875 C18.86679021 41.07521339 18.86679021 41.07521339 20.625 44.625 C20.91313843 46.82752413 21.14109527 49.03797212 21.34375 51.25 C21.40655151 51.91209473 21.46935303 52.57418945 21.53405762 53.25634766 C21.8035817 56.09933257 22.06264483 58.94325016 22.32275391 61.78710938 C22.51368255 63.85842457 22.70982887 65.92919965 22.90625 68 C23.02033203 69.24523437 23.13441406 70.49046875 23.25195312 71.7734375 C23.31665111 74.51978745 23.31665111 74.51978745 24.625 75.625 C25.20024237 80.89529776 25.41320627 86.20615639 25.6875 91.5 C25.73169067 92.34989502 25.77588135 93.19979004 25.82141113 94.07543945 C28.27594496 143.44160188 30.02227724 195.8088283 21.625 244.625 C20.965 244.625 20.305 244.625 19.625 244.625 C19.58761719 245.80835938 19.55023437 246.99171875 19.51171875 248.2109375 C19.1391945 257.80622832 18.3550671 266.2013127 14.5625 275.125 C13.31615223 278.44859405 12.8331134 281.81977074 12.28515625 285.3203125 C11.5378222 287.92934853 10.59620981 288.82923818 8.625 290.625 C8.315625 291.49125 8.00625 292.3575 7.6875 293.25 C6.625 295.625 6.625 295.625 4.5 296.4375 C3.571875 296.5303125 3.571875 296.5303125 2.625 296.625 C2.625 297.285 2.625 297.945 2.625 298.625 C-0.625 298.5 -0.625 298.5 -4.375 297.625 C-7.87590445 293.65100035 -9.16669445 289.65960647 -10.375 284.625 C-11.035 284.625 -11.695 284.625 -12.375 284.625 C-15.01997333 275.22690326 -16.56954016 265.75625812 -17.9831543 256.11523438 C-18.24433383 254.45540185 -18.53495002 252.79993464 -18.85473633 251.15039062 C-20.85265124 240.57352998 -21.28024587 229.84944261 -21.9375 219.125 C-22.12509326 216.10809589 -22.31449895 213.09134196 -22.50828552 210.0748291 C-22.62786694 208.20975359 -22.74380351 206.34443981 -22.85560608 204.47888184 C-22.90913742 203.63700317 -22.96266876 202.79512451 -23.01782227 201.92773438 C-23.06286392 201.19115601 -23.10790558 200.45457764 -23.15431213 199.69567871 C-23.37816433 197.59530961 -23.84522048 195.66669306 -24.375 193.625 C-24.52143582 191.80752433 -24.62191518 189.98610318 -24.69140625 188.1640625 C-24.73346191 187.06900391 -24.77551758 185.97394531 -24.81884766 184.84570312 C-24.85800293 183.65912109 -24.8971582 182.47253906 -24.9375 181.25 C-24.9792334 180.00412109 -25.0209668 178.75824219 -25.06396484 177.47460938 C-26.04454555 145.4716571 -25.3292539 113.39278252 -23.375 81.4375 C-23.33320618 80.73747864 -23.29141235 80.03745728 -23.24835205 79.31622314 C-23.12976036 77.36279466 -23.00261658 75.4098909 -22.875 73.45703125 C-22.76671875 71.79764526 -22.76671875 71.79764526 -22.65625 70.10473633 C-22.375 67.625 -22.375 67.625 -21.375 66.625 C-19.35354582 58.69343081 -18.47491032 50.72134933 -17.60742188 42.59570312 C-16.84319614 35.97945046 -15.4558791 29.94229688 -13.375 23.625 C-12.89048622 21.95987992 -12.41071381 20.29336661 -11.9375 18.625 C-6.69153988 1.23917405 -6.69153988 1.23917405 0 0 Z " fill="#76A58F" transform="translate(537.375,404.375)"/>
<path d="M0 0 C4.2208947 3.96291132 8.16915338 9.33544986 9 15.1875 C9 16.115625 9 17.04375 9 18 C9.66 18 10.32 18 11 18 C11.495 22.455 11.495 22.455 12 27 C12.66 27 13.32 27 14 27 C14.51139597 30.14408784 15.00696036 33.29048573 15.5 36.4375 C15.64308594 37.31599609 15.78617188 38.19449219 15.93359375 39.09960938 C16.81809002 44.80671625 17.14099827 50.22494572 17 56 C17.66 56 18.32 56 19 56 C19.6466598 64.01396246 20.16677223 71.95787245 20 80 C20.66 80 21.32 80 22 80 C23.89949596 104.89046961 24.20071044 129.75996883 24.18847656 154.7095108 C24.18750798 157.16724363 24.18846679 159.62497003 24.18969727 162.08270264 C24.19529072 191.76999978 24.19529072 191.76999978 23.55078125 205.17578125 C23.51228561 205.98428024 23.47378998 206.79277924 23.43412781 207.6257782 C23.1325396 212.8674604 23.1325396 212.8674604 22 214 C21.72140515 216.56714773 21.50063271 219.11701224 21.31640625 221.69140625 C21.19216438 223.29232602 21.06781176 224.8932372 20.94335938 226.49414062 C20.75248884 229.01944825 20.56379737 231.54489381 20.37768555 234.07055664 C20.19645853 236.50715992 20.00680354 238.94300478 19.81640625 241.37890625 C19.76424454 242.12193497 19.71208282 242.86496368 19.65834045 243.63050842 C19.26418558 248.61565552 18.29497451 253.16903188 17 258 C16.59359154 260.32806821 16.21603689 262.66146129 15.875 265 C15.70742188 266.134375 15.53984375 267.26875 15.3671875 268.4375 C15.24601563 269.283125 15.12484375 270.12875 15 271 C14.34 271 13.68 271 13 271 C12.81630859 271.99580078 12.81630859 271.99580078 12.62890625 273.01171875 C11.86343945 276.64887465 10.90868924 280.22630652 9.9375 283.8125 C9.75123047 284.50537109 9.56496094 285.19824219 9.37304688 285.91210938 C8.91678802 287.60845641 8.45859046 289.3042818 8 291 C7.34 291 6.68 291 6 291 C5.34 292.65 4.68 294.3 4 296 C3.34 296 2.68 296 2 296 C2 296.66 2 297.32 2 298 C-1.51387796 298.31944345 -3.37550387 298.43883512 -6.3125 296.375 C-8.31233339 293.56041967 -8.69029053 291.40680413 -9 288 C-9.66 288 -10.32 288 -11 288 C-13.75239068 281.98314595 -15.4571085 276.66021219 -15.82421875 270.03125 C-15.8801646 267.93264227 -15.8801646 267.93264227 -17 266 C-17.039992 264.00039988 -17.04346799 261.99952758 -17 260 C-17.66 260 -18.32 260 -19 260 C-19.13277344 259.01257812 -19.26554688 258.02515625 -19.40234375 257.0078125 C-19.57894531 255.72648437 -19.75554688 254.44515625 -19.9375 253.125 C-20.11152344 251.84882812 -20.28554688 250.57265625 -20.46484375 249.2578125 C-20.81433227 246.12440546 -20.81433227 246.12440546 -22 244 C-22.36584635 241.14393902 -22.67221846 238.30351219 -22.9375 235.4375 C-23.02249756 234.54450195 -23.10749512 233.65150391 -23.19506836 232.73144531 C-24.15766738 222.09247214 -24.73442621 211.42568841 -25.30249023 200.75952148 C-25.341716 200.05470139 -25.38094177 199.34988129 -25.4213562 198.623703 C-25.52916359 196.6858442 -25.63203671 194.74771273 -25.73461914 192.80957031 C-25.68958001 190.09792705 -25.68958001 190.09792705 -27 189 C-27.10060017 186.20361279 -27.1361526 183.43189403 -27.12939453 180.63500977 C-27.13114685 179.75669495 -27.13289917 178.87838013 -27.13470459 177.97344971 C-27.13913259 175.0460822 -27.13617755 172.11877446 -27.1328125 169.19140625 C-27.13348629 167.1508737 -27.13445695 165.11034123 -27.13571167 163.06980896 C-27.13719074 158.77301272 -27.13503118 154.47623719 -27.13037109 150.17944336 C-27.12473473 144.72082352 -27.12791222 139.26225352 -27.13394356 133.8036356 C-27.13759615 129.57634624 -27.13638823 125.34906823 -27.13381577 121.12177849 C-27.1331562 119.11311779 -27.13394032 117.10445601 -27.13629532 115.09579659 C-27.14762251 102.69376984 -26.8379058 90.37490716 -26 78 C-25.34 78 -24.68 78 -24 78 C-24.01595215 77.15687256 -24.0319043 76.31374512 -24.04833984 75.44506836 C-24.14099849 66.71409701 -23.60568933 58.24254352 -22.625 49.5625 C-22.49867188 48.34884766 -22.37234375 47.13519531 -22.2421875 45.88476562 C-21.60140981 40.03126144 -20.81188661 34.5990849 -19 29 C-18.19794442 25.60373593 -17.44018839 22.19960472 -16.68359375 18.79296875 C-16 16 -16 16 -15 14 C-14.34 14 -13.68 14 -13 14 C-12.95875 12.80375 -12.9175 11.6075 -12.875 10.375 C-12.33949926 6.1362477 -10.81292215 4.02064348 -7.86328125 1.03125 C-5.03563807 -0.53373491 -3.17374164 -0.48982492 0 0 Z " fill="#74A38D" transform="translate(541,816)"/>
<path d="M0 0 C11.26283449 7.66668489 19.48142802 18.94816517 22.5 32.39453125 C24.19195458 43.34862894 23.43573386 54.4717819 17.4375 64.08203125 C11.92676547 71.55604958 5.32366764 77.17441692 -3.875 79.26953125 C-17.45801459 80.70477353 -27.55020998 77.82805322 -38.30078125 69.53125 C-49.0484779 60.08828132 -54.81795898 47.99136117 -56.09375 33.84375 C-56.54645789 22.01675643 -53.05936326 11.97258304 -45.05859375 3.30078125 C-32.39065124 -8.77854979 -14.60443549 -8.79044147 0 0 Z " fill="#76A58F" transform="translate(1488.875,317.73046875)"/>
<path d="M0 0 C5.31337379 4.40281578 7.22709824 8.69932167 7.875 15.4375 C7.40365785 21.09360575 5.17250641 25.14815855 1.6875 29.5625 C-2.95340209 33.11142512 -7.72467716 33.67998473 -13.4375 33.1875 C-20.48072202 31.78163948 -24.34645783 27.92175856 -28.4375 22.1875 C-30.79425644 18.08879314 -31.13001249 13.82989857 -30.4375 9.1875 C-28.67878716 3.9493877 -26.24307009 0.09319354 -21.4375 -2.8125 C-13.84583179 -6.08733727 -6.62866322 -4.71561152 0 0 Z " fill="#A4C3B4" transform="translate(1430.4375,235.8125)"/>
<path d="M0 0 C4.362387 2.30465728 7.06886073 4.42624909 9 9 C10.47894225 15.08773903 10.29304174 19.47618805 7 25 C4.23049081 28.17480321 2.72383391 29.68046006 -1.40234375 30.4453125 C-5.6546224 30.63714462 -8.48297502 30.23936342 -12.375 28.4375 C-17.12919256 24.02289262 -19.21038815 20.35722942 -19.5 13.9375 C-19.30190951 9.28237352 -18.12369746 6.55754433 -15 3 C-10.27551715 -1.15181826 -6.01065996 -1.46851351 0 0 Z " fill="#75A48E" transform="translate(1371,334)"/>
<path d="M0 0 C2.16730865 3.6000901 2.55275582 7.05386023 3.0625 11.1875 C3.23731387 15.41953108 3.23731387 15.41953108 5 19 C5.28813843 21.20252413 5.51609527 23.41297212 5.71875 25.625 C5.78155151 26.28709473 5.84435303 26.94918945 5.90905762 27.63134766 C6.1785817 30.47433257 6.43764483 33.31825016 6.69775391 36.16210938 C6.88868255 38.23342457 7.08482887 40.30419965 7.28125 42.375 C7.39533203 43.62023437 7.50941406 44.86546875 7.62695312 46.1484375 C7.69165111 48.89478745 7.69165111 48.89478745 9 50 C9.57524237 55.27029776 9.78820627 60.58115639 10.0625 65.875 C10.10669067 66.72489502 10.15088135 67.57479004 10.19641113 68.45043945 C12.65094496 117.81660188 14.39727724 170.1838283 6 219 C5.67 219 5.34 219 5 219 C4.87931768 211.31655897 4.84251353 203.61654674 6 196 C6.33 195.67 6.66 195.34 7 195 C7.23528934 192.55797892 7.40618303 190.13989535 7.53515625 187.69140625 C7.5998259 186.53313072 7.5998259 186.53313072 7.665802 185.35145569 C7.80604353 182.75548355 7.9357868 180.15916662 8.0625 177.5625 C8.10702301 176.66319763 8.15154602 175.76389526 8.19741821 174.83734131 C13.8099328 111.75951015 13.8099328 111.75951015 6 50 C5.72500527 47.73057361 5.49156487 45.45601918 5.28125 43.1796875 C5.15237594 41.82681985 5.0234687 40.47395536 4.89453125 39.12109375 C4.6957916 36.99019049 4.49854075 34.85915719 4.30224609 32.72802734 C4.11144021 30.66988045 3.91532758 28.61228986 3.71875 26.5546875 C3.60466797 25.32218262 3.49058594 24.08967773 3.37304688 22.81982422 C3.30430221 20.10154861 3.30430221 20.10154861 2 19 C1.59750312 16.94638452 1.25307304 14.88125662 0.9375 12.8125 C0.76089844 11.68457031 0.58429687 10.55664062 0.40234375 9.39453125 C0.02635463 6.22235119 -0.07261318 3.19013918 0 0 Z " fill="#8DB4A2" transform="translate(553,430)"/>
<path d="M0 0 C0.33 0 0.66 0 1 0 C1.06519818 9.94543923 0.89573116 19.86134139 0.57220459 29.80078125 C-0.13922031 52.08527924 -0.30908216 74.33707228 0.4375 96.625 C0.47665527 97.81158203 0.51581055 98.99816406 0.55615234 100.22070312 C0.59820801 101.31576172 0.64026367 102.41082031 0.68359375 103.5390625 C0.73858032 104.98079834 0.73858032 104.98079834 0.79467773 106.45166016 C0.92096713 108.91387865 0.92096713 108.91387865 1.48632812 110.90576172 C2.223566 113.91147775 2.34012354 116.88183224 2.53515625 119.96875 C2.57813339 120.64490356 2.62111053 121.32105713 2.66539001 122.0177002 C2.75540809 123.44983686 2.84354603 124.88209277 2.92993164 126.31445312 C3.060391 128.4652307 3.19867977 130.61539834 3.33789062 132.765625 C3.84575684 140.84942507 4.13059328 148.89741223 4 157 C3.67 157 3.34 157 3 157 C1.50650378 146.19752733 0.68402505 135.48416829 0.34204102 124.58178711 C0.31037842 123.63956299 0.27871582 122.69733887 0.24609375 121.7265625 C0.22216553 120.88689941 0.1982373 120.04723633 0.17358398 119.18212891 C0.07357814 116.82072819 0.07357814 116.82072819 -1 114 C-4.56174448 76.44286559 -2.43311903 37.56127495 0 0 Z " fill="#96B9A8" transform="translate(513,489)"/>
<path d="M0 0 C61.71 0 123.42 0 187 0 C187 0.99 187 1.98 187 3 C185.68 3 184.36 3 183 3 C183 2.34 183 1.68 183 1 C122.61 1 62.22 1 0 1 C0 0.67 0 0.34 0 0 Z " fill="#AAC6C5" transform="translate(995,15)"/>
<path d="M0 0 C0.33 0 0.66 0 1 0 C1.02505615 0.82725586 1.0501123 1.65451172 1.07592773 2.50683594 C1.19196349 6.25471192 1.314656 10.00234125 1.4375 13.75 C1.47681641 15.05195312 1.51613281 16.35390625 1.55664062 17.6953125 C1.59853516 18.94570313 1.64042969 20.19609375 1.68359375 21.484375 C1.73858032 23.21252441 1.73858032 23.21252441 1.79467773 24.97558594 C1.96723922 27.517431 2.38105543 29.55599262 3 32 C3.21531259 34.31978527 3.38825423 36.64363 3.53515625 38.96875 C3.59962196 39.98298035 3.59962196 39.98298035 3.66539001 41.0177002 C3.75540809 42.44983686 3.84354603 43.88209277 3.92993164 45.31445312 C4.060391 47.4652307 4.19867977 49.61539834 4.33789062 51.765625 C4.84575684 59.84942507 5.13059328 67.89741223 5 76 C4.67 76 4.34 76 4 76 C2.50650378 65.19752733 1.68402505 54.48416829 1.34204102 43.58178711 C1.31037842 42.63956299 1.27871582 41.69733887 1.24609375 40.7265625 C1.22216553 39.88689941 1.1982373 39.04723633 1.17358398 38.18212891 C1.07357814 35.82072819 1.07357814 35.82072819 0 33 C-0.0846817 30.48631945 -0.11601885 28.00130626 -0.09765625 25.48828125 C-0.0962413 24.76005661 -0.09482635 24.03183197 -0.09336853 23.28153992 C-0.08777659 20.95848461 -0.07522562 18.63552612 -0.0625 16.3125 C-0.05748396 14.73632952 -0.05292123 13.16015752 -0.04882812 11.58398438 C-0.0378098 7.72261902 -0.02055074 3.86132592 0 0 Z " fill="#8DB4A2" transform="translate(512,570)"/>
<path d="M0 0 C0.33 0.66 0.66 1.32 1 2 C0.328125 3.9609375 0.328125 3.9609375 -0.75 6.375 C-3.15409375 12.12824504 -4.64192297 17.92524824 -6 24 C-6.18433594 24.78761719 -6.36867188 25.57523437 -6.55859375 26.38671875 C-7.89213858 32.47553971 -8.56398726 38.60591171 -9.24584961 44.79345703 C-9.83186623 49.96829161 -10.71372854 54.9467907 -12 60 C-12.33 60 -12.66 60 -13 60 C-13 56.37 -13 52.74 -13 49 C-12.34 49 -11.68 49 -11 49 C-11.02835938 47.71351563 -11.05671875 46.42703125 -11.0859375 45.1015625 C-11.08397538 40.08834952 -10.45292157 35.31068628 -9.625 30.375 C-9.49867188 29.56804687 -9.37234375 28.76109375 -9.2421875 27.9296875 C-8.1399694 21.14002403 -6.3398061 14.72102625 -4 8.25 C-3.67 7.32703125 -3.34 6.4040625 -3 5.453125 C-2 3 -2 3 0 0 Z " fill="#8DB4A2" transform="translate(529,411)"/>
<path d="M0 0 C2.20353658 2.74115581 3.67357593 5.27757107 4.9375 8.5546875 C5.27523438 9.41707031 5.61296875 10.27945312 5.9609375 11.16796875 C6.30382812 12.06128906 6.64671875 12.95460938 7 13.875 C9.64739995 20.7596912 9.64739995 20.7596912 12.75 27.4453125 C14 30 14 30 14 33 C13.01 33 12.02 33 11 33 C10.67386719 32.03578125 10.34773438 31.0715625 10.01171875 30.078125 C9.5706888 28.80195323 9.12926154 27.52591871 8.6875 26.25 C8.47416016 25.61578125 8.26082031 24.9815625 8.04101562 24.328125 C6.78354552 20.72462858 5.38400952 17.96057703 3 15 C0.47221138 9.95482518 -0.35030449 5.60487186 0 0 Z " fill="#317659" transform="translate(454,1910)"/>
<path d="M0 0 C1.35524008 0.0891201 2.709229 0.19727993 4.0625 0.3125 C4.81660156 0.37050781 5.57070313 0.42851563 6.34765625 0.48828125 C9 1 9 1 12.21875 2.46875 C16.51303395 4.40219538 20.78482588 4.7788445 25.4375 5.1875 C26.26443359 5.26935547 27.09136719 5.35121094 27.94335938 5.43554688 C29.96126882 5.63383855 31.98052412 5.81835402 34 6 C34 6.99 34 7.98 34 9 C5.9829878 4.90632257 5.9829878 4.90632257 0 0 Z " fill="#73A38C" transform="translate(563,2033)"/>
<path d="M0 0 C0.33 0 0.66 0 1 0 C1.41277905 24.77626887 1.41277905 24.77626887 -1 36 C-1.33 36 -1.66 36 -2 36 C-2.02685095 33.52076199 -2.04676547 31.0418116 -2.0625 28.5625 C-2.07506836 27.50192383 -2.07506836 27.50192383 -2.08789062 26.41992188 C-2.09653588 24.61306441 -2.05220011 22.80612397 -2 21 C-1.67 20.67 -1.34 20.34 -1 20 C-0.84344973 18.51361008 -0.74933057 17.02050873 -0.68359375 15.52734375 C-0.64169922 14.62822266 -0.59980469 13.72910156 -0.55664062 12.80273438 C-0.51732422 11.85720703 -0.47800781 10.91167969 -0.4375 9.9375 C-0.37272461 8.5134082 -0.37272461 8.5134082 -0.30664062 7.06054688 C-0.20020724 4.70718647 -0.09818992 2.35371646 0 0 Z " fill="#226D4A" transform="translate(564,1009)"/>
<path d="M0 0 C0.66 0 1.32 0 2 0 C3.46220279 2.56035921 4.91985153 5.1231356 6.375 7.6875 C6.7875 8.40873047 7.2 9.12996094 7.625 9.87304688 C9.68432272 13.51007651 11.58289052 17.05233788 13 21 C9.74451247 17.97704729 7.31022942 14.79537691 5 11 C5 10.34 5 9.68 5 9 C4.34 9 3.68 9 3 9 C0.56839395 5.63316085 0 4.26649636 0 0 Z " fill="#6CA687" transform="translate(468,1945)"/>
<path d="M0 0 C3.02788635 3.46044155 4.98556464 7.52249221 6 12 C5.578125 14.25 5.578125 14.25 5 16 C2.05766405 14.52883203 1.66202197 12.17404609 0.59765625 9.2109375 C-0.26387145 6.02384809 -0.20529942 3.28479071 0 0 Z " fill="#8CAA9C" transform="translate(454,1910)"/>
<path d="M0 0 C0.33 0 0.66 0 1 0 C0.88496731 2.5216376 0.75825223 5.0418119 0.625 7.5625 C0.5940625 8.26697266 0.563125 8.97144531 0.53125 9.69726562 C0.27047442 14.41295741 -0.54658123 18.50385496 -2 23 C-2.33 23 -2.66 23 -3 23 C-3.1642672 14.95090734 -2.35988732 7.70896525 0 0 Z " fill="#488669" transform="translate(522,845)"/>
<path d="M0 0 C2.0625 0.4375 2.0625 0.4375 4 1 C3.67 3.31 3.34 5.62 3 8 C1.68 8.33 0.36 8.66 -1 9 C-1.09765625 2.84765625 -1.09765625 2.84765625 -1 1 C-0.67 0.67 -0.34 0.34 0 0 Z " fill="#A7C1B5" transform="translate(415,442)"/>
<path d="M0 0 C0.66 0 1.32 0 2 0 C1.125 7.625 1.125 7.625 0 11 C-0.66 11 -1.32 11 -2 11 C-2.12375 12.134375 -2.2475 13.26875 -2.375 14.4375 C-2.58125 15.613125 -2.7875 16.78875 -3 18 C-3.66 18.33 -4.32 18.66 -5 19 C-4.54729698 16.76968311 -4.08760374 14.54078437 -3.625 12.3125 C-3.36976563 11.07113281 -3.11453125 9.82976562 -2.8515625 8.55078125 C-2.12613946 5.52596682 -1.24868779 2.83940745 0 0 Z " fill="#367B5B" transform="translate(554,1087)"/>
<path d="M0 0 C3.59357719 0.56990652 5.17249271 1.86382477 7.625 4.5 C10.03610916 7.11806646 10.03610916 7.11806646 13 9 C12.67 9.66 12.34 10.32 12 11 C10.68 10.34 9.36 9.68 8 9 C8 8.34 8 7.68 8 7 C5.525 6.01 5.525 6.01 3 5 C3 4.34 3 3.68 3 3 C2.01 2.67 1.02 2.34 0 2 C0 1.34 0 0.68 0 0 Z " fill="#88B09A" transform="translate(512,2003)"/>
<path d="M0 0 C5.27315333 0.4452885 10.01770224 1.08373163 15 3 C15 3.33 15 3.66 15 4 C9.01006953 4.3152595 5.36439644 3.68219822 0 1 C0 0.67 0 0.34 0 0 Z " fill="#479071" transform="translate(563,2033)"/>
<path d="M0 0 C0 0.33 0 0.66 0 1 C-0.7425 1.061875 -1.485 1.12375 -2.25 1.1875 C-5.83007591 2.2452497 -6.80146992 4.06862656 -9 7 C-9.99 7.33 -10.98 7.66 -12 8 C-9.40790268 1.95177293 -6.74363595 -0.61305781 0 0 Z " fill="#448466" transform="translate(541,816)"/>
<path d="M0 0 C0.66 0 1.32 0 2 0 C2.99 2.97 3.98 5.94 5 9 C4.01 8.67 3.02 8.34 2 8 C0.5522078 5.10441559 0 3.25811062 0 0 Z " fill="#4B9876" transform="translate(459,1925)"/>
<path d="M0 0 C0.66 0.33 1.32 0.66 2 1 C2 3.31 2 5.62 2 8 C1.01 7.67 0.02 7.34 -1 7 C-1.04254356 5.00045254 -1.04080783 2.99958364 -1 1 C-0.67 0.67 -0.34 0.34 0 0 Z " fill="#BBEBC1" transform="translate(1174,262)"/>
<path d="M0 0 C0.66 0 1.32 0 2 0 C2.33 1.98 2.66 3.96 3 6 C2.01 6 1.02 6 0 6 C-0.38218767 4.34385343 -0.71395102 2.67542976 -1 1 C-0.67 0.67 -0.34 0.34 0 0 Z " fill="#9FC2AF" transform="translate(457,1919)"/>
<path d="M0 0 C0.99 0 1.98 0 3 0 C3 0.99 3 1.98 3 3 C2.01 3 1.02 3 0 3 C0 2.01 0 1.02 0 0 Z " fill="#879D9D" transform="translate(1191,236)"/>
<path d="M0 0 C0.66 0.33 1.32 0.66 2 1 C2 1.66 2 2.32 2 3 C1.01 3 0.02 3 -1 3 C-0.67 2.01 -0.34 1.02 0 0 Z " fill="#B4E1D9" transform="translate(1142,126)"/>
</svg>
