<?xml version="1.0" encoding="UTF-8" standalone="no"?>
<!-- Created with Inkscape (http://www.inkscape.org/) -->

<svg
   width="512"
   height="512"
   viewBox="0 0 512 512"
   version="1.1"
   id="svg5"
   xml:space="preserve"
   inkscape:version="1.2.2 (732a01da63, 2022-12-09)"
   sodipodi:docname="icon.svg"
   inkscape:export-filename="icon-192.png"
   inkscape:export-xdpi="96"
   inkscape:export-ydpi="96"
   xmlns:inkscape="http://www.inkscape.org/namespaces/inkscape"
   xmlns:sodipodi="http://sodipodi.sourceforge.net/DTD/sodipodi-0.dtd"
   xmlns="http://www.w3.org/2000/svg"
   xmlns:svg="http://www.w3.org/2000/svg"><sodipodi:namedview
     id="namedview7"
     pagecolor="#ffffff"
     bordercolor="#000000"
     borderopacity="0.25"
     inkscape:showpageshadow="2"
     inkscape:pageopacity="0.0"
     inkscape:pagecheckerboard="true"
     inkscape:deskcolor="#d1d1d1"
     inkscape:document-units="mm"
     showgrid="false"
     inkscape:zoom="0.51328443"
     inkscape:cx="400.36282"
     inkscape:cy="428.61226"
     inkscape:current-layer="layer1" /><defs
     id="defs2" /><g
     inkscape:label="Layer 1"
     inkscape:groupmode="layer"
     id="layer1"><path
       id="rect2156"
       style="fill:#348946;fill-opacity:1;stroke:none;stroke-linejoin:round;stop-color:#000000"
       d="M 90 26 C 54.544035 26 26 54.544035 26 90 L 26 422 C 26 457.45596 54.544035 486 90 486 L 422 486 C 457.45596 486 486 457.45596 486 422 L 486 263.31836 C 479.80611 266.09136 473.03541 267.70341 465.9707 267.74414 C 438.44197 267.74714 416.12294 245.43303 416.12109 217.9043 C 416.14059 215.22927 416.37545 212.55906 416.82422 209.92188 C 410.09689 212.90679 402.82268 214.45749 395.46289 214.47461 C 366.20369 214.47761 342.48052 190.76115 342.47852 161.50195 C 342.51752 154.66393 343.87834 147.89663 346.48828 141.57617 C 345.11309 141.74392 343.73079 141.84232 342.3457 141.87109 C 319.43286 141.87138 300.85909 123.29762 300.85938 100.38477 C 300.89346 89.705435 305.04476 79.451493 312.44922 71.755859 C 301.91272 63.959676 295.67968 51.642283 295.63867 38.535156 C 295.66532 34.19841 296.37627 29.982659 297.66797 26 L 90 26 z " /></g></svg>
